<svg width="845" height="531" viewBox="0 0 845 531" fill="none" xmlns="http://www.w3.org/2000/svg">
<path d="M463.015 58.4776C583.379 57.2522 624.206 143.682 698.706 188.09C770.321 230.779 830.092 279.486 816.716 333.465C804.507 382.732 801.896 414.358 725.5 448.611C647.146 483.742 537.842 448.032 429.512 448.611C312.459 449.237 187.581 534.263 105.206 495.209C20.0156 454.82 -10.566 351.448 4.33997 295.035C18.3281 242.096 109.429 223.479 194.436 188.09C278.489 153.097 350.709 59.621 463.015 58.4776Z" fill="#003ECE"/>
<path fill-rule="evenodd" clip-rule="evenodd" d="M676.587 239.41L715.859 376.694L744.513 477.879H765.412L734.963 239.41H676.587Z" fill="#191847"/>
<path fill-rule="evenodd" clip-rule="evenodd" d="M666.085 239.41C665.176 310.168 662.079 348.761 661.125 355.189C660.171 361.618 645.75 402.514 617.862 477.879H639.511C675.015 405.579 694.835 364.683 698.969 355.189C703.104 345.696 715.863 307.103 735.081 239.41H666.085Z" fill="#2F3676"/>
<path fill-rule="evenodd" clip-rule="evenodd" d="M615.927 497.469L617.01 474.721H639.758C650.544 482.304 664.626 488.442 682.003 493.136V497.469H640.841L626.759 495.302V497.469H615.927Z" fill="#191847"/>
<path fill-rule="evenodd" clip-rule="evenodd" d="M741.581 497.469L742.664 474.721H765.412C776.198 482.304 790.28 488.442 807.657 493.136V497.469H766.495L752.413 495.302V497.469H741.581Z" fill="#191847"/>
<path fill-rule="evenodd" clip-rule="evenodd" d="M676.224 109.433C670.557 104.759 666.187 98.5749 665.377 90.921C663.044 68.8677 694.215 68.2838 702.062 78.2319C709.91 88.18 714.153 116.191 706.878 119.507C703.977 120.83 697.161 120.059 689.865 117.254L699.191 145.79L674.763 150.121L676.224 109.433Z" fill="#B28B67"/>
<path fill-rule="evenodd" clip-rule="evenodd" d="M686.24 89.7031C689.485 102.563 693.113 108.637 697.125 107.926C703.143 106.859 707.572 102.133 710.213 101.665C712.138 101.323 712.135 103.809 711.176 105.821C710.384 107.481 705.509 109.81 705.914 112.095C706.319 114.379 710.056 111.894 710.297 113.249C710.694 115.49 712.153 119.577 708.263 120.267C704.327 120.965 692.786 121.531 689.815 116.032C687.899 112.482 685.706 104.812 683.238 93.0209C682.995 93.0348 682.749 93.0633 682.502 93.107C679.13 93.705 676.88 96.924 677.478 100.297C677.782 102.009 678.761 103.432 680.092 104.339C679.033 106.585 677.819 108.949 676.385 111.421C668.843 108.539 661.661 97.4624 666.287 84.7784C667.13 78.817 670.767 75.0678 675.445 72.797C679.139 70.4205 683.248 69.498 686.922 69.8787C693.88 69.2514 700.371 70.2563 702.325 71.19C703.476 77.679 702.56 79.8271 691.79 81.5614C689.399 83.4229 687.796 86.1823 686.24 89.7031Z" fill="#191847"/>
<path fill-rule="evenodd" clip-rule="evenodd" d="M764.882 210.812L801.875 232.3C811.456 233.82 819.569 236.113 826.212 239.178C827.829 240.362 829.898 242.886 823.724 243.063C817.549 243.24 811.062 243.703 810.434 245.871C809.807 248.04 813.774 250.136 812.36 253.121C811.416 255.112 805.544 250.989 794.742 240.754L759.244 230.3L764.882 210.812ZM616.991 224.769L636.367 224.167C623.807 271.53 617.017 296.605 615.997 299.39C613.704 305.658 619.327 314.878 621.766 319.854C614.497 323.405 614.866 311.2 605.702 315.844C597.336 320.083 591.114 327.444 581.087 321.763C579.855 321.064 578.436 318.32 581.558 316.024C589.336 310.305 600.488 300.384 601.931 297.197C603.9 292.852 608.92 268.709 616.991 224.769Z" fill="#B28B67"/>
<path fill-rule="evenodd" clip-rule="evenodd" d="M682.447 134.198L693.476 128.281C716.318 164.959 746.739 198.979 792.001 224.265L785.177 242.791C746.803 228.537 711.088 218.505 692.334 190.27C686.04 180.794 684.246 146.539 682.447 134.198Z" fill="#C5CFD6"/>
<path fill-rule="evenodd" clip-rule="evenodd" d="M661.826 252.395C695.988 250.02 722.385 245.365 741.019 238.431C743.328 237.572 743.003 233.531 741.421 231.028C716.783 192.056 698.504 157.482 693.359 128.302C690.477 130.446 684.986 131.659 676.885 131.942C660.944 165.759 657.263 201.983 661.826 252.395Z" fill="#323337"/>
<path fill-rule="evenodd" clip-rule="evenodd" d="M671.16 130.353L680.013 128.792C684.201 140.492 719.508 302.71 749.003 352.611L640.4 371.761C634.122 322.39 642.326 260.308 652.463 207.779C638.498 225.862 628.524 254.088 622.541 292.456L601.282 290.847C604.972 223.325 627.664 170.174 669.359 131.392C669.42 131.139 669.48 130.888 669.54 130.638L670.324 130.5C670.58 130.265 670.836 130.031 671.094 129.797L671.16 130.353V130.353Z" fill="#DDE3E9"/>
<path fill-rule="evenodd" clip-rule="evenodd" d="M479.135 313.446C482.646 311.705 487.327 313.724 485.375 318.327C483.283 323.256 475.55 323.317 471.182 323.219C471.619 323.196 473.027 318.676 473.509 317.993C474.93 315.978 476.977 314.518 479.135 313.446ZM438.706 403.253C437.466 404.313 438.605 403.353 438.706 403.253V403.253ZM483.216 336.33C485.316 337.919 485.414 340.726 483.698 342.627C481.654 344.891 477.923 344.81 475.139 344.591C473.879 344.492 467.153 343.962 468.748 342.871C468.625 342.917 468.369 343.029 468.095 343.18C467.947 343.714 467.792 344.246 467.63 344.775C467.67 344.798 467.704 344.823 467.746 344.846C467.7 344.826 467.668 344.804 467.628 344.784C466.008 350.077 463.703 355.118 460.686 359.834C461.814 359.393 462.982 359.06 464.167 358.911C467.676 358.47 475.056 361.167 471.129 365.795C467.363 370.233 461.507 365.477 457.236 364.823C453.09 370.552 448.519 376.042 443.73 381.349C444.023 381.439 444.28 381.629 444.428 381.924C446.349 380.958 448.35 379.577 450.128 379.202C452.693 378.662 457.952 378.333 459.889 380.606C462.272 383.4 459.715 385.672 456.898 386.209C452.813 386.989 447.468 385.016 443.538 383.682C443.089 383.761 442.598 383.631 442.305 383.275C442.218 383.247 442.131 383.219 442.047 383.192C437.197 388.473 432.161 393.58 427.156 398.575C427.209 398.572 427.262 398.569 427.318 398.566C428.623 397.718 430.023 397.022 431.541 396.657C435.051 395.808 439.18 395.802 442.027 398.315C444.863 400.818 445.866 405.197 442.929 408.011C437.051 413.642 428.402 400.813 425.439 400.279C420.353 405.301 414.975 409.994 409.512 414.593C410.133 414.406 410.769 414.268 411.426 414.206C416.78 413.696 429.343 420.19 422.77 426.589C417.041 432.165 410.419 421.441 405.807 417.692C400.659 421.978 395.484 426.235 390.454 430.657C393.197 429.935 395.847 429.827 398.786 430.705C401.827 431.615 406.734 433.888 404.809 437.956C402.852 442.093 396.959 440.214 393.889 438.902C392.216 438.187 388.86 435.771 385.913 434.754C377.886 442.26 370.933 450.526 365.666 460.262C362.379 466.341 359.883 472.835 358.125 479.509C357.003 483.768 354.793 490.923 355.232 496.467C353.132 485.371 356.946 472.042 361.052 462.121C364.828 452.999 370.475 444.989 377.088 437.779C375.432 432.839 361.474 425.72 369.823 421.125C374.256 418.696 378.794 422.721 379.761 426.986C380.424 429.916 379.409 433.6 378.331 436.445C380.412 434.247 382.574 432.12 384.803 430.063C387.883 427.22 391.036 424.46 394.219 421.734C388.978 416.858 384.023 402.913 391.055 400.629C401.439 397.265 396.43 416.292 395.704 419.858C395.498 419.87 395.338 419.808 395.22 419.677C395.278 420.003 395.346 420.352 395.428 420.704C401.521 415.515 407.704 410.427 413.684 405.114C413.146 404.72 412.29 403.214 411.618 402.413C410.101 400.606 408.649 398.719 407.588 396.605C405.912 393.265 404.297 387.937 408.745 385.969C413.581 383.826 415.876 389.852 415.907 393.448C415.929 395.934 415.244 398.297 414.887 400.735C414.775 401.495 415.202 404.922 414.157 403.448C414.206 403.992 414.213 404.385 414.188 404.664C415.262 403.706 416.327 402.737 417.386 401.761C417.337 401.637 417.301 401.503 417.292 401.347C417.236 400.275 418.326 399.862 419.089 400.176C420.486 398.861 421.869 397.53 423.228 396.172C426.107 393.296 429.028 390.337 431.929 387.316C431.301 386.781 431.551 386.04 430.963 385.472C430.376 384.905 429.219 384.592 428.529 384.066C426.793 382.742 425.353 380.812 424.312 378.912C422.594 375.773 420.374 369.188 425.4 367.69C430.58 366.142 433.205 372.481 433.536 376.444C433.6 377.212 433.016 384.132 432.571 386.644C437.939 381.029 443.218 375.204 448.002 369.277C446.552 369.265 442.444 366.326 441.614 365.523C439.588 363.567 436.368 359.243 439.923 356.952C443.084 354.921 446.977 357.859 448.327 360.716C448.549 361.187 449.33 365.566 449.39 367.531C451.37 365.018 453.259 362.49 455.016 359.954C456.188 358.268 457.283 356.537 458.308 354.77C458.062 354.632 457.83 354.391 457.611 354.091C452.341 353.208 445.626 345.068 451.818 342.231C454.766 340.882 457.961 343.662 459.404 345.938C459.699 346.404 460.177 348.745 460.566 350.592C463.515 344.738 465.769 338.54 467.486 332.186C467.027 332.073 466.638 331.727 466.588 331.13C464.03 329.686 462.01 328.484 460.225 325.707C459.116 323.982 457.12 320.041 460.381 319.082C464.624 317.834 467.287 324.251 467.632 327.412C467.672 327.779 467.67 328.846 467.656 329.824C467.803 329.804 467.952 329.806 468.098 329.832C469.075 325.897 469.854 321.912 470.475 317.92C468.16 317.183 467.765 305.138 469.308 303.422C472.757 299.58 475.186 305.127 475 308.059C474.781 311.516 473.197 314.662 471.312 317.453C471.11 317.749 471.168 317.735 471.116 317.323C471.087 317.527 471.018 317.677 470.916 317.786C471.012 319.605 471.201 321.468 471.109 323.079C470.846 327.69 470.301 332.329 469.511 336.882C469.319 337.989 469.099 339.087 468.852 340.176C470.715 338.604 473.225 337.208 474.207 336.771C476.757 335.638 480.685 334.414 483.216 336.33ZM354.815 496.029C354.938 497.511 355.304 498.863 356.023 499.971C355.495 498.705 355.099 497.386 354.815 496.029Z" fill="#C1DEE2"/>
<path fill-rule="evenodd" clip-rule="evenodd" d="M405.223 111.445C409.425 105.453 417.224 90.2348 423.138 88.0936C426.948 86.7146 425.837 100.98 425.884 103.7C426.067 114.224 425.043 124.681 423.778 135.116C421.498 153.937 414.045 170.697 403.822 186.715C398.562 194.957 392.391 203.3 383.845 208.442C379.912 210.811 375.179 211.207 371.294 213.248C366.769 215.623 369.233 213.703 367.194 218.417C364.363 224.963 363.457 233.408 362.147 240.392C356.132 272.455 341.568 441.945 344.093 474.558C344.317 477.449 340.287 478.14 340.085 474.611C339.016 455.9 348.27 326.322 352.94 283.947C357.609 241.571 362.334 204.134 367.071 189.474C372.819 171.687 383.199 150.298 391.84 133.711C395.854 126.006 400.229 118.565 405.223 111.445Z" fill="#69A1AC"/>
<path fill-rule="evenodd" clip-rule="evenodd" d="M436.414 319.278C447.349 311.25 459.186 326.401 449.29 334.43C443.82 338.868 438.101 337.29 434.882 333.591C432.792 336.139 430.836 338.803 428.956 341.052C423.229 347.908 417.817 354.928 412.644 362.111C401.898 377.035 392.689 392.801 383.06 408.278C373.558 423.554 364.132 438.908 355.519 454.571C348.223 467.841 338.498 483.452 336 498C339.79 467.146 354.172 437.49 371.298 410.291C388.285 383.314 407.779 353.853 434.081 332.564C431.404 328.627 431.33 323.008 436.414 319.278Z" fill="#C1DEE2"/>
<path fill-rule="evenodd" clip-rule="evenodd" d="M228.913 244.031C235.032 245.227 245.031 259.07 250.075 264.344C256.07 270.612 261.508 277.292 266.635 284.292C277.671 299.358 287.541 315.376 295.934 332.08C309.616 359.311 320.578 387.265 328.533 416.918C333.403 435.069 336.556 453.883 338.424 472.565C338.777 476.089 342.471 503.253 337.148 503.985C332.361 504.644 333.84 483.359 333.609 480.463C330.998 447.798 323.177 416.015 312.299 385.226C309.929 378.519 307.728 370.304 303.938 364.269C301.209 359.921 303.919 361.437 299.123 359.792C295.005 358.378 290.313 358.724 286.096 356.993C276.936 353.237 269.601 345.944 263.171 338.608C250.676 324.351 240.774 308.928 235.613 290.66C232.749 280.532 230.118 270.344 228.658 259.902C228.281 257.203 224.972 243.26 228.913 244.031Z" fill="#69A1AC"/>
<path fill-rule="evenodd" clip-rule="evenodd" d="M253.061 13.716C276.111 53.6904 295.053 97.6012 307.283 142.076C314.694 169.023 319.876 196.675 325.025 224.126C332.997 266.632 340.538 309.134 342.683 352.395C344.841 395.906 349.108 446.092 334.861 488C341.978 445.452 335.202 400.162 334.002 357.35C333.429 336.912 331.768 316.674 329.588 296.355C327.473 276.645 324.018 257.029 320.801 237.474C319.234 227.95 317.588 218.441 315.912 208.937C315.411 206.101 315.2 197.687 313.401 195.75C311.591 193.8 302.354 193.005 299.454 191.574C293.615 188.693 288.122 184.6 283.261 180.275C273.942 171.984 265.835 161.151 259.436 150.472C244.631 125.764 238.712 95.61 239.011 66.9942C239.068 61.4382 248.003 1.60995 244.415 0.786066C244.631 0.533029 244.835 0.271761 245.028 0C247.745 4.54878 250.411 9.1284 253.061 13.716Z" fill="#89C5CC"/>
<path fill-rule="evenodd" clip-rule="evenodd" d="M501.846 157.887C502.202 157.374 504.517 153.807 503.351 154.035C505.724 153.57 500.087 157.969 506 155.27C503.192 157.922 504.813 161.366 504.85 164.935C504.911 170.73 503.942 176.476 502.851 182.146C501.126 191.109 498.557 199.823 494.828 208.159C486.701 226.326 472.901 243.814 456.518 255.172C448.43 260.779 440.504 262.689 431.28 265.27C425.453 266.901 424.991 269.915 421.898 275.569C415.46 287.345 409.136 299.078 403.457 311.251C396.677 325.788 390.095 340.34 383.886 355.132C362.969 404.957 345.945 456.578 337.005 510C336.786 478.519 344.069 446.095 353.255 416.088C359.947 394.226 368.658 373.151 377.95 352.289C380.201 347.236 383.613 340.735 384.57 335.155C385.239 331.245 383.192 327.486 382.255 323.367C378.601 307.33 378.863 289.363 382.071 273.24C385.609 255.461 395.839 247.209 413.145 244.691C419.474 243.769 427.519 244.107 433.322 241.408C439.645 238.47 442.253 228.81 445.849 222.61C455.506 205.953 466.98 189.979 480.155 175.945C483.803 172.059 487.726 168.473 491.888 165.15C494.513 163.053 500.058 160.47 501.846 157.887Z" fill="#89C5CC"/>
<path fill-rule="evenodd" clip-rule="evenodd" d="M307.791 476H369.209C371.97 476 374.209 478.239 374.209 481C374.209 481.244 374.191 481.488 374.155 481.729L369.408 513.918C367.961 523.73 359.541 531 349.622 531H327.378C317.459 531 309.039 523.73 307.592 513.918L302.845 481.729C302.442 478.998 304.33 476.456 307.062 476.053C307.303 476.018 307.547 476 307.791 476Z" fill="#C1DEE2"/>
</svg>
