<svg width="294" height="620" viewBox="0 0 294 620" fill="none" xmlns="http://www.w3.org/2000/svg">
<path d="M106.5 169.039C110.1 167.439 125 159.372 132 155.539C142.333 154.539 165.3 153.139 174.5 155.539C186 158.539 192 163.539 198 167.539C204 171.539 221 177.039 231.5 184.039C239.9 189.639 255.5 210.539 258 228.539C253.822 235.69 238.321 246.231 230 253.039C224.5 257.539 219.5 246.539 218 249.539C214.5 275.039 220 310.539 221 316.039C221.8 320.439 226.667 328.872 229 332.539C237 351.539 234.5 348.039 243 371.039C251.5 394.039 239 563.039 239 569.539V619.5L176 598.539V576.539C176 566.539 170.5 512.539 168.5 500.539C166.5 488.539 163.5 427.039 160 426.539C156.5 426.039 129 558.039 127.5 565.039C126.3 570.639 125.667 584.372 125.5 590.539L57.5 608.039V567.539C57.5 555.039 67 482.039 68.5 471.039C70 460.039 77 387.039 78 376.039C79 365.039 86.5 319.539 87.5 310.539C88.3 303.339 86.3333 285.372 85 277.039C83.5 275.039 67 278.039 57.5 275.039C52.1057 273.335 45 268.372 42 266.539C43.5 223.539 73 180.539 83.5 177.039C89.864 174.917 102 171.039 106.5 169.039Z" fill="#6A9EEA"/>
<path d="M115.5 381.039C106.085 379.077 86 378.539 77.5 378.539C78 372.872 79.5 364.539 79.5 364.539C81.5 367.039 105 368.039 115.5 369.039C123.9 369.839 143.333 372.706 152 374.039C187.5 376.539 241.5 370.039 242 369.039C242.217 368.604 242.919 370.175 243.5 373.039C244.5 377.039 245 382.039 245 383.539C236 388.539 159.5 386.039 152.5 385.539C145.5 385.039 127.5 383.539 115.5 381.039Z" fill="#5E92D0"/>
<g filter="url(#filter0_d_33_146)">
<path d="M160 426.539C160 426.539 157.5 414.039 153.5 409.039C153 408.039 152.586 387.707 152 374.039" stroke="#072955" stroke-linecap="round"/>
</g>
<path d="M206.5 278.039C205.5 279.372 181 280.038 179 277.539C177 275.039 174.5 241.039 176.5 240.539C178.5 240.039 203.8 240.039 205 241.539C206.2 243.039 207.5 276.706 206.5 278.039Z" fill="#8FB6EE"/>
<path d="M160.5 446.039L25 407.539L1 489.539L137 528.039L160.5 446.039Z" fill="#022B39" stroke="black"/>
<path d="M152 465.039C150.8 465.039 139 507.539 139 509.039C139 510.539 144 512.039 145.5 511.039C147 510.039 149 496.039 150 495.539C151 495.039 153.5 496.039 154.5 495.539C155.5 495.039 157.5 487.539 157 486.039C156.5 484.539 154 483.539 153.5 482.539C153 481.539 158 469.539 157.5 468.539C157 467.539 153.5 465.039 152 465.039Z" fill="#014F67" stroke="black" stroke-width="0.5"/>
<path d="M49.0001 369.539C47.0001 365.539 35.5 330.539 34.0001 316.039C32.5001 301.539 43.0001 267.039 43.0001 267.039C58.5 263.539 83.1429 268.039 83 268.539C78.9995 282.539 71.5 299.539 70.5 312.539C70.3045 315.081 73.3456 324.08 74.5 328.039C78 340.039 79.5 363.039 81.5 375.039C83.5 387.039 92.5 411.039 94 416.539C94.8424 419.627 102.5 422.539 102.5 428.539C102.5 428.539 97.5 427.039 97 427.039C96.5001 427.038 100.2 441.939 101 445.539C102 450.039 103 463.539 100 463.539C97 463.539 97.143 458.039 96 450.039C94.857 442.039 91.5 434.039 91.5 434.039C91.5 434.039 99.2406 466.021 93.2407 466.021C90.5 466.021 90.5 456.039 89 451.539C87.5 447.039 85 439.039 85 439.039C85 439.039 91 467.039 86.5 467.039C84 467.039 84.5 462.039 83 455.039C81.5 448.039 78.5 440.539 78.5 440.539C78.5 440.539 82.0311 463.039 78 463.039C75.5 463.039 71.5 441.039 70.5 436.539C69.947 434.05 67.5 421.039 66 416.539C64.8933 413.218 51 373.539 49.0001 369.539Z" fill="#873C3C" stroke="#4E1216"/>
<path d="M42.5 257.039C41.4999 257.039 40.5 267.039 42.5 269.039C44.5 271.039 50 273.539 58.5 275.039C67 276.539 81.5 276.914 83 276.539C84.5 276.164 84.5 267.039 83 265.539C82 264.539 65.5 264.539 60 263.039C54.5 261.539 43.5 257.039 42.5 257.039Z" fill="#8FB6EE"/>
<path d="M185.5 159.539C186.5 160.539 155.5 212.539 149.5 212.539C143.5 212.539 118 161.539 118 161.539L128 155.039L171 151.039L185.5 159.539Z" fill="#8FB6EE"/>
<path d="M239.5 422.539C238.5 413.039 230.5 397.539 228 397.039C224 402.539 219.5 414.539 216.5 413.039C215.5 411.039 217 405.039 218.5 400.539C220 396.039 223.5 387.539 223.5 387.539C224.5 385.539 225.5 381.039 228 371.539C230 363.939 242.833 335.706 249 322.539C249 322.539 258 304.039 261 299.539C259.5 295.539 234.5 262.039 229.5 253.539C224.5 245.039 255.5 226.13 258.5 229.539C269.5 242.039 292.032 284.039 292.5 298.539C292.764 306.72 283.606 326.431 272 345.039C261.617 361.686 249.159 371.539 248 388.539C247.452 396.583 252.442 407.278 254.5 416.539C256 424.539 255.5 440.039 254 440.039C251.5 440.039 253 431.539 252.5 431.039C252.441 430.98 252.5 445.039 250.5 445.039C249 445.039 250.5 431.539 249 428.539C248.764 428.068 248.5 446.539 246.5 445.539C243.5 444.539 247 425.789 244.5 422.039C243.915 421.162 245.531 443.539 242 441.539C240.054 440.437 240.5 432.039 239.5 422.539Z" fill="#873C3C" stroke="#4E1216"/>
<path d="M255 217.539C255.851 217.152 260.359 228.41 259.5 231.039C258.641 233.667 255 239.039 247.4 245.368C239.801 251.698 230 256.539 227.18 256.243C224.36 255.947 218.856 251.01 219.5 249.039C219.5 249.039 230.064 244.323 239.5 236.539C248.936 228.755 255 217.539 255 217.539Z" fill="#8FB6EE"/>
<path d="M79 267.539C87.5 267.134 97.8334 248.039 101.5 238.039H104.5C104.5 238.039 91 270.539 79 270.039C74 269.83 70.3334 266.205 70.5 264.039L72.0001 263.039C72.0001 263.039 73.9999 267.777 79 267.539Z" fill="#B5E5FF" stroke="#6493C5" stroke-width="0.3"/>
<path d="M90 273.039C77.5 272.539 75.5 247.539 76 232.039H78.5C78.5 232.039 77 270.039 89.5 270.539C93.0971 270.683 95.5 268.539 95.5 268.539L97 269.539C97 269.539 93.9968 273.199 90 273.039Z" fill="#B5E5FF" stroke="#6493C5" stroke-width="0.3"/>
<circle cx="215" cy="243.039" r="5.5" fill="#0086B1" stroke="#016B8C"/>
<path d="M105 201.539C108.2 204.739 110.5 212.039 110.5 217.539C110.5 222.463 108.366 230.04 105 237.919H101.5C103.667 233.793 107.5 226.039 107.5 217.539C107.5 209.039 103.5 200.039 96.5 200.039C83 200.039 78.5 216.539 78.5 232.039H76C77 198.039 91 198.539 97 197.539C97.1667 194.539 98.9 185.439 106.5 173.039C114.1 160.639 128.333 153.872 134.5 152.039L132.5 155.539C124.5 157.539 112 166.039 106.5 177.539C101 189.039 100 193.039 99.5 197.539C100 197.539 101.8 198.339 105 201.539Z" fill="#016B8C" stroke="#004D77" stroke-width="0.5"/>
<path d="M71.7724 260.79C72.46 261.996 72.2149 263.296 71.4069 263.756C70.599 264.217 69.3552 263.766 68.6676 262.561C67.9801 261.355 68.2251 260.055 69.0331 259.594C69.8411 259.133 71.0848 259.584 71.7724 260.79Z" fill="#016B8C" stroke="#004D77" stroke-width="0.5"/>
<path d="M98.7906 269.391C97.9257 270.282 96.6761 270.365 95.9958 269.704C95.3155 269.044 95.3615 267.792 96.2263 266.901C97.0912 266.011 98.3409 265.928 99.0212 266.588C99.7015 267.249 99.6555 268.5 98.7906 269.391Z" fill="#016B8C" stroke="#004D77" stroke-width="0.5"/>
<path d="M201 186.039C212.146 212.539 212.5 239.039 212.5 239.039H215.5C215.5 239.039 216.807 217.539 204.5 187.039C192.193 156.539 172.5 151.539 172.5 151.539L174 155.039C174 155.039 191.116 162.539 201 186.039Z" fill="#016B8C" stroke="#004D77" stroke-width="0.3"/>
<path d="M136.5 149.539C134.5 153.539 130 156.039 128 157.539C133.667 169.872 145.2 196.039 150 196.039C154.8 196.039 169 169.372 175 156.039C174.167 155.372 173 153.039 171 148.539C169 144.039 170.5 131.539 170.5 125.539L160.5 124.039L138.5 125.539C138.333 131.205 138.5 145.539 136.5 149.539Z" fill="#873C3C" stroke="#4E130E"/>
<path d="M170.5 125.539L170 139.039C165.5 139.039 157.5 138.539 152 136.539C146.5 134.539 141.5 129.539 141.5 129.539V126.039L170.5 125.539Z" fill="#4E130E"/>
<path d="M119 106.539C118.2 102.939 122 100.039 124 99.0388C127.167 103.372 132.5 112.139 128.5 112.539C123.5 113.039 120 111.039 119 106.539Z" fill="#4E110D" stroke="#270B0E"/>
<path d="M191 102.539C191 98.1388 187 95.7055 185 95.0388C181.667 99.3722 176.1 108.139 180.5 108.539C186 109.039 191 108.039 191 102.539Z" fill="#4E110D" stroke="#270B0E"/>
<path d="M124.5 98.5386C127.5 120.539 143 131.539 150 133.039C153.333 133.872 157.829 133.907 162.5 132.039C175 127.039 183.786 108.539 185 100.039C185.4 97.2388 186.5 87.5388 182.5 78.0388L177.5 67.0388L161 55.5388L135 61.0388C135 61.0388 130.5 73.0388 126.5 78.0388C122.5 83.0388 124.5 98.5386 124.5 98.5386Z" fill="#873C3C" stroke="#6C2C2C"/>
<circle cx="135.5" cy="101.539" r="5.5" fill="#4E110D"/>
<circle cx="167.5" cy="100.539" r="5.5" fill="#4E110D"/>
<ellipse cx="167" cy="89.0388" rx="2" ry="3" fill="#120500"/>
<ellipse cx="137" cy="89.0388" rx="2" ry="3" fill="#120500"/>
<path d="M150.5 83.5388C150.5 83.5388 150.5 99.0388 150.5 99.5388C150.5 100.039 152.5 100.539 153.5 101.039" stroke="#491919" stroke-linecap="round"/>
<path d="M158.1 107.084L145.299 107.497C144.643 107.518 144.198 108.154 144.519 108.726C145.496 110.469 147.67 112.719 151.5 113.039C155.458 113.368 157.874 110.548 158.974 108.334C159.28 107.719 158.786 107.062 158.1 107.084Z" fill="white" stroke="#4E110D" stroke-width="0.5" stroke-linecap="round"/>
<path d="M168 77.5388C162.5 77.0388 159.5 77.0387 160 79.0388C160.5 81.0388 167 79.5386 170 80.0387C173 80.5388 175.5 83.5388 176 83.0388C176.5 82.5388 173.5 78.0388 168 77.5388Z" fill="#0F0000"/>
<path d="M125 85.0386C125.5 84.0386 132 78.5386 136 78.0386C140 77.5386 143 78.0385 143 79.5386C143 81.0387 138.5 79.5386 134.5 80.5386C130.5 81.5387 124.5 86.0386 125 85.0386Z" fill="#0F0000"/>
<path d="M120 90.0387C120.4 92.4387 123 99.0386 123.5 99.5387C124 100.039 124 92.4388 124 90.0387C124 87.0386 127.5 84.0388 129 83.0388C130.5 82.0388 129.5 78.0388 130 76.5388C130.5 75.0388 132.5 72.0387 135.5 70.0388C138.5 68.0389 143 68.0388 147 67.0388C151 66.0388 154 63.5388 156 63.0388C158 62.5388 158 65.5388 160.5 67.0388C163 68.5388 164 66.5388 166.5 66.5388C169 66.5388 168.5 70.0388 170 72.0388C171.5 74.0388 174 73.5388 176 75.0388C178 76.5388 177.5 79.5388 179 81.5388C180.5 83.5388 181.5 83.5388 183 85.5388C184.2 87.1388 184.5 92.8722 184.5 95.5388C184.667 95.7055 185.2 96.0388 186 96.0388C187 96.0388 188 90.5388 189 88.0388C190 85.5388 187 82.5388 186.5 82.0388C186 81.5388 188.5 74.5388 187.5 72.5388C185 68.0388 184 65.0388 184 63.0388C184 61.4388 182.667 59.3722 182 58.5388C184 58.5388 187 56.0388 187.5 53.5388C188 51.0388 196 48.0388 197.5 39.5388C199 31.0388 190 13.0388 187.5 11.5388C185 10.0388 182 12.0388 180 10.0388C178 8.03882 172.5 0.538709 167 0.0387086C164 -0.461291 157 4.03871 154.5 4.53871C152 5.03871 149.5 0.538709 147 0.538709C144.5 0.538709 138.5 5.53871 137 6.03871C135.5 6.53871 131.5 5.53871 129.5 7.53871C127.5 9.53871 127 15.0387 126 15.5387C125 16.0387 122 17.5387 121 18.5387C120 19.5387 122 31.5387 121 33.5387C120 35.5387 120.5 44.0387 122 47.0387C123.2 49.4387 128.167 54.0387 130.5 56.0387C129.667 56.872 127.9 58.8387 127.5 60.0387C127 61.5387 127.5 62.5387 127 64.0387C126.5 65.5387 123.5 68.0387 122 72.0387C120.5 76.0387 122 84.0387 122 85.5387C122 87.0387 119.5 87.0387 120 90.0387Z" fill="#270B0E"/>
<path d="M148.5 40.0388C146.5 41.2388 146 45.0387 146.5 46.0388C147 47.0388 165.5 47.0388 165.5 44.5388C165.5 42.0389 164 41.039 162.5 40.039L162.5 40.0388C161 39.0387 151 38.5388 148.5 40.0388Z" fill="#97EC90" stroke="black"/>
<defs>
<filter id="filter0_d_33_146" x="147.5" y="373.539" width="17.0001" height="61.5001" filterUnits="userSpaceOnUse" color-interpolation-filters="sRGB">
<feFlood flood-opacity="0" result="BackgroundImageFix"/>
<feColorMatrix in="SourceAlpha" type="matrix" values="0 0 0 0 0 0 0 0 0 0 0 0 0 0 0 0 0 0 127 0" result="hardAlpha"/>
<feOffset dy="4"/>
<feGaussianBlur stdDeviation="2"/>
<feComposite in2="hardAlpha" operator="out"/>
<feColorMatrix type="matrix" values="0 0 0 0 0 0 0 0 0 0 0 0 0 0 0 0 0 0 0.25 0"/>
<feBlend mode="normal" in2="BackgroundImageFix" result="effect1_dropShadow_33_146"/>
<feBlend mode="normal" in="SourceGraphic" in2="effect1_dropShadow_33_146" result="shape"/>
</filter>
</defs>
</svg>
