<svg width="625" height="338" viewBox="0 0 625 338" fill="none" xmlns="http://www.w3.org/2000/svg">
<path d="M219.602 40.9366C219.801 40.4014 219.909 39.8226 219.909 39.2185C219.909 37.9966 219.466 36.8781 218.731 36.0147C217.822 34.9466 216.467 34.2689 214.954 34.2689C212.217 34.2689 209.998 36.4849 209.998 39.2185C209.998 41.8926 212.121 44.0714 214.776 44.1649C214.835 44.167 214.894 44.1681 214.954 44.1681C217.086 44.1681 218.903 42.8233 219.602 40.9366Z" fill="#FF7D00"/>
<path d="M244.903 53.1732C245.099 52.64 245.207 52.0636 245.207 51.4622C245.207 50.4633 244.911 49.5336 244.401 48.7558C243.662 47.628 242.475 46.8197 241.093 46.5836C240.819 46.5369 240.538 46.5126 240.252 46.5126C238.301 46.5126 236.614 47.638 235.806 49.2742C235.479 49.9339 235.296 50.6767 235.296 51.4622C235.296 52.4704 235.598 53.4082 236.116 54.1904C237.003 55.5289 238.524 56.4118 240.252 56.4118C240.883 56.4118 241.486 56.294 242.041 56.0791C243.364 55.5673 244.412 54.5047 244.903 53.1732Z" fill="#FF7D00"/>
<path d="M271.865 35.9305C272.485 35.1042 272.852 34.0781 272.852 32.9664C272.852 32.8383 272.847 32.7113 272.837 32.5857C272.707 30.8722 271.703 29.4025 270.269 28.62C269.565 28.2354 268.756 28.0168 267.897 28.0168C265.831 28.0168 264.06 29.2798 263.316 31.0749C263.075 31.6577 262.941 32.2965 262.941 32.9664C262.941 35.7 265.16 37.916 267.897 37.916C267.914 37.916 267.931 37.9159 267.949 37.9157C269.551 37.8992 270.971 37.123 271.865 35.9305Z" fill="#FF7D00"/>
<path d="M284.537 14.6594C284.571 14.4276 284.588 14.1906 284.588 13.9496C284.588 11.216 282.369 9 279.633 9C276.896 9 274.677 11.216 274.677 13.9496C274.677 14.1271 274.687 14.3025 274.705 14.4752C274.881 16.1427 275.886 17.5633 277.301 18.3182C277.996 18.689 278.79 18.8992 279.633 18.8992C281.101 18.8992 282.246 18.6107 283.154 17.5966C283.788 16.8878 284.396 15.6456 284.537 14.6594Z" fill="#FF7D00"/>
<path d="M237.637 94.9664C237.641 94.8801 237.644 94.7933 237.644 94.7059C237.644 93.0739 236.853 91.6264 235.633 90.7248C234.81 90.1162 233.791 89.7563 232.688 89.7563C231.478 89.7563 230.37 90.1894 229.509 90.9089C228.424 91.8169 227.733 93.1808 227.733 94.7059C227.733 97.4395 229.952 99.6555 232.688 99.6555C235.337 99.6555 237.501 97.5789 237.637 94.9664Z" fill="#FF7D00"/>
<path d="M299.048 57.3042C299.943 56.4087 300.497 55.1723 300.497 53.8067C300.497 53.68 300.492 53.5545 300.483 53.4302C300.313 51.1775 298.634 49.3455 296.453 48.9406C296.157 48.8858 295.853 48.8571 295.542 48.8571C294.043 48.8571 292.7 49.5216 291.791 50.5718C291.04 51.4393 290.586 52.5701 290.586 53.8067C290.586 54.2896 290.656 54.7564 290.785 55.1976C291.386 57.2541 293.288 58.7563 295.542 58.7563C296.911 58.7563 298.151 58.2013 299.048 57.3042Z" fill="#FF7D00"/>
<path d="M325.301 27.0471C325.617 26.3953 325.795 25.6637 325.795 24.8908C325.795 22.1572 323.576 19.9412 320.84 19.9412C318.302 19.9412 316.209 21.847 315.919 24.3041C315.896 24.4965 315.884 24.6923 315.884 24.8908C315.884 25.6397 316.051 26.3497 316.349 26.986C317.139 28.6722 318.853 29.8403 320.84 29.8403C321.105 29.8403 321.366 29.8194 321.62 29.7792C323.245 29.5223 324.607 28.4765 325.301 27.0471Z" fill="#FF7D00"/>
<path d="M329.407 52.0845C329.433 51.8806 329.446 51.673 329.446 51.4622C329.446 50.3902 329.105 49.3978 328.525 48.5875C327.626 47.3314 326.154 46.5126 324.491 46.5126C324.25 46.5126 324.013 46.5298 323.781 46.563C322.414 46.7589 321.227 47.5124 320.458 48.5853C319.895 49.3719 319.556 50.3302 319.536 51.3665C319.536 51.3983 319.535 51.4302 319.535 51.4622C319.535 53.3593 320.604 55.0071 322.173 55.838C322.864 56.2043 323.653 56.4118 324.491 56.4118C327.016 56.4118 329.101 54.5243 329.407 52.0845Z" fill="#FF7D00"/>
<path d="M346.498 75.607C346.769 74.9949 346.92 74.3175 346.92 73.605C346.92 72.2782 346.397 71.0732 345.546 70.1845C344.644 69.2423 343.373 68.6555 341.965 68.6555C340.551 68.6555 339.277 69.2462 338.374 70.194C337.528 71.0818 337.009 72.2829 337.009 73.605C337.009 73.9625 337.047 74.3111 337.119 74.6471C337.582 76.8024 339.449 78.4372 341.717 78.5486C341.799 78.5526 341.882 78.5546 341.965 78.5546C343.988 78.5546 345.728 77.3433 346.498 75.607Z" fill="#FF7D00"/>
<path d="M361.552 59.7979C363.508 59.1357 364.915 57.2866 364.915 55.1092C364.915 52.3757 362.697 50.1597 359.96 50.1597C359.275 50.1597 358.623 50.2983 358.03 50.5491C356.349 51.2597 355.142 52.8709 355.016 54.777C355.008 54.8868 355.005 54.9976 355.005 55.1092C355.005 56.5364 355.609 57.8224 356.577 58.7257C357.462 59.5527 358.652 60.0588 359.96 60.0588C360.517 60.0588 361.052 59.9671 361.552 59.7979Z" fill="#FF7D00"/>
<path d="M324.491 111.118C327.227 111.118 329.446 108.902 329.446 106.168C329.446 105.732 329.39 105.31 329.284 104.908C328.726 102.785 326.791 101.218 324.491 101.218C323.725 101.218 322.999 101.392 322.351 101.702C321.324 102.194 320.493 103.03 320.006 104.059C319.704 104.699 319.535 105.414 319.535 106.168C319.535 108.356 320.957 110.212 322.927 110.866C323.419 111.029 323.944 111.118 324.491 111.118Z" fill="#FF7D00"/>
<path d="M304.658 97.3939C305.161 96.6199 305.452 95.6969 305.452 94.7059C305.452 92.9884 304.576 91.4753 303.247 90.5876C302.46 90.0625 301.514 89.7563 300.497 89.7563C299.116 89.7563 297.867 90.3208 296.968 91.2313C296.086 92.1249 295.542 93.3519 295.542 94.7059C295.542 94.7933 295.544 94.8801 295.548 94.9664C295.684 97.5789 297.848 99.6555 300.497 99.6555C302.241 99.6555 303.775 98.755 304.658 97.3939Z" fill="#FF7D00"/>
<path d="M318.492 133C321.229 133 323.448 130.784 323.448 128.05C323.448 126.689 322.897 125.455 322.006 124.56C321.343 123.894 320.492 123.416 319.538 123.211C319.201 123.139 318.851 123.101 318.492 123.101C315.756 123.101 313.537 125.317 313.537 128.05C313.537 130.784 315.756 133 318.492 133Z" fill="#FF7D00"/>
<path d="M250.59 80.324C251.142 79.5255 251.466 78.5568 251.466 77.5126C251.466 76.4662 251.141 75.4956 250.586 74.6961C249.692 73.4072 248.2 72.563 246.511 72.563C246.193 72.563 245.882 72.593 245.58 72.6502C243.498 73.0453 241.878 74.7415 241.598 76.86C241.57 77.0736 241.556 77.2914 241.556 77.5126C241.556 79.0475 242.255 80.4192 243.353 81.3271C244.21 82.0361 245.311 82.4622 246.511 82.4622C248.202 82.4622 249.695 81.6159 250.59 80.324Z" fill="#FF7D00"/>
<path d="M269.201 69.1765C273.09 69.1765 276.242 66.0274 276.242 62.1429C276.242 58.2583 273.09 55.1092 269.201 55.1092C265.312 55.1092 262.159 58.2583 262.159 62.1429C262.159 66.0274 265.312 69.1765 269.201 69.1765ZM269.201 69.1765L271.678 87.4703M237.291 53.4174L236.116 54.1904M217.064 66.8319L236.116 54.1904M214.946 42.9761L214.776 44.1649M211.563 63.7059L214.776 44.1649M242.468 28.0061L241.093 46.5836M241.032 47.3556L241.093 46.5836M241.799 54.9462L242.041 56.0791M245.972 74.484L245.58 72.6502M215.475 75.9437L229.509 90.9089M229.878 91.316L229.509 90.9089M218.025 71.3908L241.598 76.86M244.596 77.5316L241.598 76.86M249.51 79.7014L250.59 80.324M266.984 90.1901L250.59 80.324M263.375 66.1797L250.586 74.6961M248.51 76.0788L250.586 74.6961M243.725 80.8739L243.353 81.3271M235.38 91.0335L235.633 90.7248M236.861 94.9664H237.637M265.568 94.9664H237.637M279.59 95.2238L295.548 94.9664M298.15 94.9664H295.548M274.071 67.2227L296.968 91.2313M298.725 93.134L296.968 91.2313M275.967 60.1891L290.785 55.1976M293.201 54.37L290.785 55.1976M275.967 64.0966L307.017 73.2143M298.747 56.949L299.048 57.3042M309.295 69.7272L299.048 57.3042M299.369 53.5508L300.483 53.4302M321.016 51.2062L319.536 51.3665M349.891 39.7894L358.03 50.5491M358.759 51.5121L358.03 50.5491M361.499 59.5979L361.552 59.7979M364.394 71L361.552 59.7979M328.485 51.9875L329.407 52.0845M358.216 55.1135L355.016 54.777M327.468 55.4268L338.374 70.194M339.204 71.3176L338.374 70.194M322.348 55.3995L322.173 55.838M316.611 68.3501L322.173 55.838M309.625 80.3722L303.247 90.5876M302.204 92.2545L303.247 90.5876M316.611 81.465L322.351 101.702M322.376 101.791L322.351 101.702M323.159 110.022L322.927 110.866M318.725 126.173L319.538 123.211M319.021 79.5418L340.115 99.1345M321.096 74.6471H337.119M338.574 74.6471H337.119M303.417 96.8547L304.658 97.3939M321.412 104.67L320.006 104.059M327.521 105.132L329.284 104.908M339.212 104.059L329.284 104.908M344.53 71.2398L345.546 70.1845M357.57 57.6936L356.577 58.7257M345.197 75.4353L346.498 75.607M359.019 77.2588L346.498 75.607M341.432 76.8615L341.717 78.5486M344.53 96.2689L341.717 78.5486M350.701 97.4251L361.499 83.1134M321.095 125.388L322.006 124.56M341.432 107.601L322.006 124.56M243.118 52.5482L244.903 53.1732M262.159 59.4076L244.903 53.1732M267.896 36.5826L267.949 37.9157M268.549 55.139L267.949 37.9157M271.229 35.4629L271.865 35.9305M293.919 52.1352L291.791 50.5718M297.624 37.4743L296.453 48.9406M296.32 50.239L296.453 48.9406M218.963 40.6078L219.602 40.9366M236.176 49.4649L235.806 49.2742M217.645 36.7474L218.731 36.0147M236.477 23.9579L218.731 36.0147M249.696 19.2899L274.705 14.4752M276.103 14.2226L274.705 14.4752M249.242 23.9579L263.316 31.0749M264.097 31.4979L263.316 31.0749M277.671 17.7764L277.301 18.3182M269.847 29.2386L270.269 28.62M270.721 32.7072L272.837 32.5857M292.423 31.2731L272.837 32.5857M324.492 26.7595L325.301 27.0471M339.356 31.825L325.301 27.0471M321.616 29.7407L321.62 29.7792M323.963 47.976L323.781 46.563M304.798 35.4629L320.458 48.5853M321.608 49.5651L320.458 48.5853M340.412 39.7894L328.525 48.5875M327.302 49.4866L328.525 48.5875M306.302 29.2386L316.349 26.986M317.547 26.7314L316.349 26.986M284.036 14.5051L284.537 14.6594M317.94 24.9253L315.919 24.3041M282.755 16.7472L283.154 17.5966M293.919 26.5336L283.154 17.5966M263.642 35.6968L244.401 48.7558M243.299 49.5036L244.401 48.7558M219.602 40.9366C219.801 40.4014 219.909 39.8226 219.909 39.2185C219.909 37.9966 219.466 36.8781 218.731 36.0147M219.602 40.9366C218.903 42.8233 217.086 44.1681 214.954 44.1681C214.894 44.1681 214.835 44.167 214.776 44.1649M219.602 40.9366L235.806 49.2742M218.731 36.0147C217.822 34.9466 216.467 34.2689 214.954 34.2689C212.217 34.2689 209.998 36.4849 209.998 39.2185C209.998 41.8926 212.121 44.0714 214.776 44.1649M244.903 53.1732C245.099 52.64 245.207 52.0636 245.207 51.4622C245.207 50.4633 244.911 49.5336 244.401 48.7558M244.903 53.1732C244.412 54.5047 243.364 55.5673 242.041 56.0791M244.401 48.7558C243.662 47.628 242.475 46.8197 241.093 46.5836M241.093 46.5836C240.819 46.5369 240.538 46.5126 240.252 46.5126C238.301 46.5126 236.614 47.638 235.806 49.2742M235.806 49.2742C235.479 49.9339 235.296 50.6767 235.296 51.4622C235.296 52.4704 235.598 53.4082 236.116 54.1904M236.116 54.1904C237.003 55.5289 238.524 56.4118 240.252 56.4118C240.883 56.4118 241.486 56.294 242.041 56.0791M242.041 56.0791L245.58 72.6502M271.865 35.9305C272.485 35.1042 272.852 34.0781 272.852 32.9664C272.852 32.8383 272.847 32.7113 272.837 32.5857M271.865 35.9305C270.971 37.123 269.551 37.8992 267.949 37.9157M271.865 35.9305L291.791 50.5718M272.837 32.5857C272.707 30.8722 271.703 29.4025 270.269 28.62M270.269 28.62C269.565 28.2354 268.756 28.0168 267.897 28.0168C265.831 28.0168 264.06 29.2798 263.316 31.0749M270.269 28.62L277.301 18.3182M263.316 31.0749C263.075 31.6577 262.941 32.2965 262.941 32.9664C262.941 35.7 265.16 37.916 267.897 37.916C267.914 37.916 267.931 37.9159 267.949 37.9157M284.537 14.6594C284.571 14.4276 284.588 14.1906 284.588 13.9496C284.588 11.216 282.369 9 279.633 9C276.896 9 274.677 11.216 274.677 13.9496C274.677 14.1271 274.687 14.3025 274.705 14.4752M284.537 14.6594C284.396 15.6456 283.788 16.8878 283.154 17.5966M284.537 14.6594L315.919 24.3041M274.705 14.4752C274.881 16.1427 275.886 17.5633 277.301 18.3182M277.301 18.3182C277.996 18.689 278.79 18.8992 279.633 18.8992C281.101 18.8992 282.246 18.6107 283.154 17.5966M237.637 94.9664C237.641 94.8801 237.644 94.7933 237.644 94.7059C237.644 93.0739 236.853 91.6264 235.633 90.7248M237.637 94.9664C237.501 97.5789 235.337 99.6555 232.688 99.6555C229.952 99.6555 227.733 97.4395 227.733 94.7059C227.733 93.1808 228.424 91.8169 229.509 90.9089M235.633 90.7248C234.81 90.1162 233.791 89.7563 232.688 89.7563C231.478 89.7563 230.37 90.1894 229.509 90.9089M235.633 90.7248L243.353 81.3271M250.59 80.324C251.142 79.5255 251.466 78.5568 251.466 77.5126C251.466 76.4662 251.141 75.4956 250.586 74.6961M250.59 80.324C249.695 81.6159 248.202 82.4622 246.511 82.4622C245.311 82.4622 244.21 82.0361 243.353 81.3271M250.586 74.6961C249.692 73.4072 248.2 72.563 246.511 72.563C246.193 72.563 245.882 72.593 245.58 72.6502M245.58 72.6502C243.498 73.0453 241.878 74.7415 241.598 76.86M241.598 76.86C241.57 77.0736 241.556 77.2914 241.556 77.5126C241.556 79.0475 242.255 80.4192 243.353 81.3271M299.048 57.3042C299.943 56.4087 300.497 55.1723 300.497 53.8067C300.497 53.68 300.492 53.5545 300.483 53.4302M299.048 57.3042C298.151 58.2013 296.911 58.7563 295.542 58.7563C293.288 58.7563 291.386 57.2541 290.785 55.1976M300.483 53.4302C300.313 51.1775 298.634 49.3455 296.453 48.9406M300.483 53.4302L319.536 51.3665M296.453 48.9406C296.157 48.8858 295.853 48.8571 295.542 48.8571C294.043 48.8571 292.7 49.5216 291.791 50.5718M291.791 50.5718C291.04 51.4393 290.586 52.5701 290.586 53.8067C290.586 54.2896 290.656 54.7564 290.785 55.1976M325.301 27.0471C325.617 26.3953 325.795 25.6637 325.795 24.8908C325.795 22.1572 323.576 19.9412 320.84 19.9412C318.302 19.9412 316.209 21.847 315.919 24.3041M325.301 27.0471C324.607 28.4765 323.245 29.5223 321.62 29.7792M315.919 24.3041C315.896 24.4965 315.884 24.6923 315.884 24.8908C315.884 25.6397 316.051 26.3497 316.349 26.986M316.349 26.986C317.139 28.6722 318.853 29.8403 320.84 29.8403C321.105 29.8403 321.366 29.8194 321.62 29.7792M321.62 29.7792L323.781 46.563M329.407 52.0845C329.433 51.8806 329.446 51.673 329.446 51.4622C329.446 50.3902 329.105 49.3978 328.525 48.5875M329.407 52.0845C329.101 54.5243 327.016 56.4118 324.491 56.4118C323.653 56.4118 322.864 56.2043 322.173 55.838M329.407 52.0845L355.016 54.777M328.525 48.5875C327.626 47.3314 326.154 46.5126 324.491 46.5126C324.25 46.5126 324.013 46.5298 323.781 46.563M323.781 46.563C322.414 46.7589 321.227 47.5124 320.458 48.5853M320.458 48.5853C319.895 49.3719 319.556 50.3302 319.536 51.3665M319.536 51.3665C319.536 51.3983 319.535 51.4302 319.535 51.4622C319.535 53.3593 320.604 55.0071 322.173 55.838M346.498 75.607C346.769 74.9949 346.92 74.3175 346.92 73.605C346.92 72.2782 346.397 71.0732 345.546 70.1845M346.498 75.607C345.728 77.3433 343.988 78.5546 341.965 78.5546C341.882 78.5546 341.799 78.5526 341.717 78.5486M345.546 70.1845C344.644 69.2423 343.373 68.6555 341.965 68.6555C340.551 68.6555 339.277 69.2462 338.374 70.194M345.546 70.1845L356.577 58.7257M338.374 70.194C337.528 71.0818 337.009 72.2829 337.009 73.605C337.009 73.9625 337.047 74.3111 337.119 74.6471M337.119 74.6471C337.582 76.8024 339.449 78.4372 341.717 78.5486M361.552 59.7979C363.508 59.1357 364.915 57.2866 364.915 55.1092C364.915 52.3757 362.697 50.1597 359.96 50.1597C359.275 50.1597 358.623 50.2983 358.03 50.5491M361.552 59.7979C361.052 59.9671 360.517 60.0588 359.96 60.0588C358.652 60.0588 357.462 59.5527 356.577 58.7257M358.03 50.5491C356.349 51.2597 355.142 52.8709 355.016 54.777M355.016 54.777C355.008 54.8868 355.005 54.9976 355.005 55.1092C355.005 56.5364 355.609 57.8224 356.577 58.7257M329.284 104.908C329.39 105.31 329.446 105.732 329.446 106.168C329.446 108.902 327.227 111.118 324.491 111.118C323.944 111.118 323.419 111.029 322.927 110.866M329.284 104.908C328.726 102.785 326.791 101.218 324.491 101.218C323.725 101.218 322.999 101.392 322.351 101.702M322.351 101.702C321.324 102.194 320.493 103.03 320.006 104.059M320.006 104.059C319.704 104.699 319.535 105.414 319.535 106.168C319.535 108.356 320.957 110.212 322.927 110.866M320.006 104.059L304.658 97.3939M322.927 110.866L319.538 123.211M304.658 97.3939C305.161 96.6199 305.452 95.6969 305.452 94.7059C305.452 92.9884 304.576 91.4753 303.247 90.5876M304.658 97.3939C303.775 98.755 302.241 99.6555 300.497 99.6555C297.848 99.6555 295.684 97.5789 295.548 94.9664M303.247 90.5876C302.46 90.0625 301.514 89.7563 300.497 89.7563C299.116 89.7563 297.867 90.3208 296.968 91.2313M296.968 91.2313C296.086 92.1249 295.542 93.3519 295.542 94.7059C295.542 94.7933 295.544 94.8801 295.548 94.9664M322.006 124.56C322.897 125.455 323.448 126.689 323.448 128.05C323.448 130.784 321.229 133 318.492 133C315.756 133 313.537 130.784 313.537 128.05C313.537 125.317 315.756 123.101 318.492 123.101C318.851 123.101 319.201 123.139 319.538 123.211M322.006 124.56C321.343 123.894 320.492 123.416 319.538 123.211M279.633 94.4454C279.633 98.3299 276.48 101.479 272.591 101.479C268.702 101.479 265.549 98.3299 265.549 94.4454C265.549 90.5608 268.702 87.4118 272.591 87.4118C276.48 87.4118 279.633 90.5608 279.633 94.4454ZM306.495 30.8824C306.495 34.7669 303.343 37.916 299.454 37.916C295.565 37.916 292.412 34.7669 292.412 30.8824C292.412 26.9978 295.565 23.8487 299.454 23.8487C303.343 23.8487 306.495 26.9978 306.495 30.8824ZM352.657 35.0504C352.657 38.935 349.505 42.084 345.616 42.084C341.727 42.084 338.574 38.935 338.574 35.0504C338.574 31.1659 341.727 28.0168 345.616 28.0168C349.505 28.0168 352.657 31.1659 352.657 35.0504ZM373 78.0336C373 81.9182 369.847 85.0672 365.958 85.0672C362.069 85.0672 358.917 81.9182 358.917 78.0336C358.917 74.1491 362.069 71 365.958 71C369.847 71 373 74.1491 373 78.0336ZM353.179 102.782C353.179 106.666 350.026 109.815 346.137 109.815C342.248 109.815 339.096 106.666 339.096 102.782C339.096 98.897 342.248 95.7479 346.137 95.7479C350.026 95.7479 353.179 98.897 353.179 102.782ZM249.901 20.9832C249.901 24.8678 246.749 28.0168 242.86 28.0168C238.971 28.0168 235.818 24.8678 235.818 20.9832C235.818 17.0986 238.971 13.9496 242.86 13.9496C246.749 13.9496 249.901 17.0986 249.901 20.9832ZM218.083 70.479C218.083 74.3636 214.931 77.5126 211.042 77.5126C207.153 77.5126 204 74.3636 204 70.479C204 66.5944 207.153 63.4454 211.042 63.4454C214.931 63.4454 218.083 66.5944 218.083 70.479ZM321.1 74.9076C321.1 78.7921 317.948 81.9412 314.059 81.9412C310.17 81.9412 307.017 78.7921 307.017 74.9076C307.017 71.023 310.17 67.874 314.059 67.874C317.948 67.874 321.1 71.023 321.1 74.9076Z" stroke="#FF7D00" stroke-width="3.00163"/>
<path fill-rule="evenodd" clip-rule="evenodd" d="M545.738 50.4901C550.346 45.0814 553.464 38.4529 552.943 31.0255C551.442 9.62498 521.651 14.3328 515.857 25.1339C510.062 35.9351 510.75 63.333 518.24 65.2635C521.226 66.0333 527.589 64.1475 534.065 60.2443L530 89H554L545.738 50.4901Z" fill="#B28B67"/>
<path fill-rule="evenodd" clip-rule="evenodd" d="M563.407 23.9017C564.182 23.1335 564.605 22.0371 564.97 20.9959C565.35 19.9144 565.719 18.8217 565.972 17.696C566.475 15.4468 566.48 12.8602 564.876 11.1136C563.589 9.71309 561.658 9.08491 559.876 8.94839C558.689 8.85734 557.469 9.02361 556.331 9.39775C555.202 9.76891 554.229 10.5086 553.134 10.9678C553.092 8.5439 552.677 6.0077 551.447 3.93808C550.264 1.94677 548.378 0.829322 546.229 0.533691C544.024 0.230298 541.846 0.746335 539.872 1.81393C539.378 2.0813 538.888 2.36141 538.419 2.67844C538.027 2.94392 537.619 3.26363 537.159 3.37159C536.645 3.49209 536.391 3.19567 536.058 2.82123C535.666 2.38221 535.226 1.99553 534.76 1.65273C532.698 0.13726 529.993 -0.485844 527.604 0.422543C526.504 0.841064 525.433 1.55183 524.687 2.53127C524.021 3.40433 523.546 4.78925 522.628 5.39753C522.238 5.65575 521.963 5.31364 521.608 5.0608C521.075 4.68089 520.566 4.26167 520.027 3.89211C519.269 3.37289 518.448 2.98452 517.57 2.78123C516.283 2.4836 514.506 2.55336 514.138 4.23819C514 4.87104 514.106 5.54788 514.15 6.18551C514.211 7.06106 514.275 7.93631 514.351 8.81057C514.409 9.47437 514.482 10.1155 514.607 10.7674C514.674 11.1148 514.883 11.7626 514.734 12.1106C514.548 12.5455 513.689 12.2982 513.321 12.3134C512.596 12.3433 511.868 12.4705 511.197 12.7804C510.678 13.0206 510.131 13.3738 509.912 13.9694C509.777 14.3353 509.813 14.7112 509.876 15.0876C509.953 15.5393 509.865 15.779 509.808 16.2348C508.834 15.7552 505.459 14.6896 505.035 16.4351C504.893 17.0163 505.215 17.673 505.461 18.1632C505.892 19.0229 506.457 19.8087 507.034 20.5581C508.239 22.1214 509.677 23.4698 511.224 24.623C509.411 25.4289 508.938 27.806 510.507 29.2223C511.2 29.8476 512.132 29.9868 513.006 29.9468C513.326 29.9321 513.787 29.8092 514.039 29.8649C514.175 29.8948 514.32 30.0097 514.507 30.0225C515.741 30.107 517.134 29.8098 518.34 29.536C520.488 29.0482 522.523 28.0302 524.184 26.4797C524.61 26.082 524.962 25.853 525.536 25.8589C526.038 25.864 526.532 26.0018 527.034 26.0145C528.362 26.0484 529.56 25.3989 530.794 24.9665C530.87 26.6333 531.345 28.4691 532.026 29.9687C532.582 31.1915 533.743 31.3692 534.884 31.4765C538.533 31.8198 542.194 31.4367 545.848 31.4417C542.311 32.2411 538.657 32.5705 535.152 33.5112C533.568 33.9363 534.778 35.004 535.455 35.7443C536.57 36.9632 537.4 38.4735 537.975 40.0646C539.705 37.8096 542.763 36.3238 545.472 37.0165C548.465 37.7818 550.573 41.8296 548.659 44.7397C547.547 46.429 545.541 47.0811 543.871 47.8069C545.173 49.1612 545.489 51.1614 546.273 52.8462C546.659 53.6771 547.202 54.6165 548.067 54.9061C548.387 55.0132 548.762 55.0224 549.014 55.2832C549.327 55.6061 549.401 55.9671 549.801 56.2446C551.394 57.3523 553.883 57.2669 555.295 55.8214C556.572 54.5141 556.24 52.4454 555.173 51.12C556.871 50.4123 559.964 49.5021 559.289 46.8571C562.968 46.6128 571.9 40.6462 566.963 36.2863C569.673 34.7548 572.162 31.012 570.422 27.7127C569.081 25.1721 565.964 24.0364 563.407 23.9017Z" fill="#191847"/>
<path fill-rule="evenodd" clip-rule="evenodd" d="M597.377 214H520.123L510 338H625L597.377 214Z" fill="#C5CFD6"/>
<path fill-rule="evenodd" clip-rule="evenodd" d="M597.377 214H573.617L559.396 338H625L597.377 214Z" fill="black" fill-opacity="0.1"/>
<path fill-rule="evenodd" clip-rule="evenodd" d="M432.047 192.756C423.81 187.81 409.991 194.165 410 201.238C410.028 222.403 429.343 322.151 430.352 328.457C431.36 334.762 442.163 336.428 442.792 328.477C443.793 315.827 445.653 272.033 443.792 251.763C443.024 243.395 442.197 235.427 441.383 228.318C451.518 246.621 467.193 272.826 488.407 306.934L499.923 301.672C490.88 271.876 483.464 250.841 477.677 238.567C467.767 217.55 458.475 199.552 454.564 193.212C448.412 183.24 437.705 186.719 432.047 192.756Z" fill="#B28B67"/>
<path fill-rule="evenodd" clip-rule="evenodd" d="M499.1 285.125L459.573 191.487C450.103 176.255 423.554 194.587 426.783 203.422C434.114 223.479 471.4 288.414 473.585 294.39L499.1 285.125Z" fill="#1F28CF"/>
<path fill-rule="evenodd" clip-rule="evenodd" d="M501.295 295.767C503.758 297.794 505.359 299.45 506.101 300.734C507.002 302.295 508.058 304.725 509.267 308.021C507.456 309.067 491.174 318.467 460.422 336.222C456.73 332.758 456.155 330.07 458.696 328.156C461.238 326.243 463.335 324.629 464.988 323.315L481.848 300.087C482.172 299.64 482.798 299.54 483.244 299.865C483.252 299.87 483.26 299.876 483.267 299.882L486.77 302.579C489.984 302.299 492.382 301.702 493.965 300.788C495.251 300.045 496.727 298.5 498.393 296.153L498.393 296.153C499.033 295.253 500.281 295.041 501.182 295.68C501.221 295.708 501.259 295.737 501.295 295.767Z" fill="#E4E4E4"/>
<path fill-rule="evenodd" clip-rule="evenodd" d="M445.322 323.402C446.441 326.388 447 328.623 447 330.106C447 331.909 446.7 334.54 446.099 338C444.007 338 425.206 338 389.697 338C388.231 333.155 389.077 330.539 392.235 330.152C395.393 329.766 398.016 329.417 400.105 329.106L426.32 317.419C426.824 317.194 427.416 317.421 427.641 317.925C427.644 317.934 427.648 317.942 427.652 317.951L429.337 322.039C432.26 323.403 434.636 324.085 436.463 324.085C437.948 324.085 439.999 323.485 442.616 322.286L442.616 322.285C443.62 321.825 444.807 322.266 445.267 323.27C445.287 323.313 445.305 323.357 445.322 323.402Z" fill="#E4E4E4"/>
<path fill-rule="evenodd" clip-rule="evenodd" d="M407.23 208.433C407.23 235 419.846 296.97 419.854 302.82L447 302.841C443.027 247.545 441.618 219.6 442.773 219.004C444.507 218.111 513.824 225.925 534.614 225.925C564.592 225.925 576.994 207.02 578 172H518.614C506.522 173.294 443.451 186.015 420.028 190.388C410 192.261 407.23 201.115 407.23 208.433Z" fill="#2B44FF"/>
<path fill-rule="evenodd" clip-rule="evenodd" d="M509.362 109.7L474.652 90.6898C468.88 83.8355 463.193 78.5121 457.591 74.7198C455.879 74.0051 452.886 73.5726 455.685 78.5414C458.485 83.5103 461.206 88.8627 459.78 90.3935C458.353 91.9243 454.797 89.7859 453.095 92.3293C451.961 94.0249 458.037 96.7035 471.323 100.365L496.544 123.458L509.362 109.7ZM455 125.74L439.753 117.364C437.614 109.224 435.057 105.128 432.082 105.077C429.796 104.014 433.776 114.3 429.444 113.408C425.111 112.516 414.536 104.651 412.714 106.248C410.018 108.61 412.421 115.864 415.254 119.473C420.547 126.218 424.929 128.524 435.762 131.544C441.425 133.123 447.549 136.289 454.132 141.04L455 125.74Z" fill="#997659"/>
<path fill-rule="evenodd" clip-rule="evenodd" d="M526.266 105.465C514.108 105.337 497.896 102.769 480.598 91.7888L473.804 106.939C485.736 118.78 502.514 128.51 517.184 128.098C528.745 127.773 534.653 113.789 526.266 105.465Z" fill="#2026A2"/>
<path fill-rule="evenodd" clip-rule="evenodd" d="M509.896 129.761C496.989 132.98 475.345 129.184 444.964 118.373C437.428 133.964 433.945 145.078 434.513 151.717C460.576 165.331 482.913 171.401 501.317 171.802C500.732 182.721 502.061 193.112 506.526 202.606C515.705 222.124 569.455 204.048 587.527 207.606C598.845 170.851 576.962 155.914 576.944 132.397C576.925 106.642 556.246 67 553.203 67H525.456C523.925 86.669 516.22 108.346 509.896 129.761Z" fill="#1F28CF"/>
<path fill-rule="evenodd" clip-rule="evenodd" d="M84.8162 64.8536C80.5338 59.8269 77.6353 53.6665 78.1197 46.7637C79.5152 26.8748 107.201 31.2501 112.587 41.2883C117.972 51.3266 117.332 76.7893 110.372 78.5834C107.596 79.2989 101.683 77.5463 95.6648 73.9188L99.4424 100.643H77.1375L84.8162 64.8536Z" fill="#B28B67"/>
<path fill-rule="evenodd" clip-rule="evenodd" d="M122.468 27.3725C122.006 25.7489 120.764 24.3588 119.09 23.9464C118.684 23.8464 118.264 23.806 117.846 23.8228C117.697 23.8288 117.655 23.872 117.585 23.7672C117.533 23.6895 117.531 23.4997 117.51 23.4084C117.444 23.1245 117.36 22.8441 117.258 22.571C116.907 21.6394 116.319 20.815 115.609 20.1205C114.281 18.8212 112.488 17.9245 110.624 17.7623C109.604 17.6735 108.592 17.8392 107.628 18.171C107.129 18.3428 106.645 18.5566 106.173 18.7931C106.031 18.8642 105.571 19.2128 105.428 19.1902C105.271 19.1653 104.955 18.7743 104.827 18.6762C103.245 17.463 101.293 16.986 99.3233 17.0003C97.1002 17.0171 94.9596 17.1281 93.1056 18.4833C92.7131 18.7702 92.3393 19.0844 91.9834 19.4151C91.796 19.5892 91.6145 19.7699 91.4413 19.9581C91.3369 20.0716 91.2352 20.1877 91.1373 20.3069C90.9711 20.5092 90.9978 20.5757 90.7652 20.4345C89.8729 19.8924 88.8389 19.6389 87.7974 19.7668C87.179 19.8429 86.5773 20.0286 86.006 20.2729C85.8115 20.3561 85.3613 20.688 85.1539 20.6912C84.9483 20.6944 84.5043 20.3868 84.2925 20.3086C83.1482 19.8862 81.9148 19.782 80.7121 19.9772C79.4715 20.1786 78.2528 20.6736 77.2016 21.3576C76.6961 21.6867 76.2549 22.0512 75.9006 22.5405C75.7476 22.7517 75.6094 22.9751 75.436 23.171C75.3345 23.2857 75.1335 23.4033 75.079 23.5485C75.1116 23.4616 73.7222 22.9259 73.5911 22.8917C72.8926 22.7093 72.1813 22.7463 71.4974 22.9713C70.2112 23.3946 69.1051 24.3438 68.196 25.317C67.7291 25.8168 67.3205 26.3694 66.9737 26.958C66.8075 27.24 66.6555 27.5301 66.5164 27.8262C66.449 27.9697 66.4043 28.1492 66.3156 28.2785C66.2011 28.4451 66.1242 28.4482 65.917 28.5209C64.8644 28.8896 63.9048 29.5138 63.1741 30.3572C62.435 31.2105 61.9554 32.2614 61.7543 33.368C61.7425 33.4331 61.7354 33.7033 61.6973 33.7386C61.6449 33.7871 61.4333 33.7656 61.3532 33.775C61.0759 33.8076 60.8006 33.856 60.5289 33.9203C60.0281 34.0388 59.5407 34.2133 59.0796 34.4414C57.2822 35.3307 55.9968 36.998 55.3677 38.874C54.7076 40.8428 54.7193 43.0984 55.5083 45.0305C55.6357 45.3426 55.7873 45.6455 55.9654 45.932C56.0748 46.1079 56.1101 46.1084 56.0391 46.2929C55.9599 46.4983 55.8153 46.6978 55.7213 46.8984C55.4147 47.5531 55.2003 48.2475 55.0649 48.9567C54.8428 50.12 54.7327 51.3426 54.9518 52.5148C55.0536 53.0591 55.2309 53.5912 55.5014 54.076C55.6393 54.3232 55.8007 54.5576 55.9829 54.7744C56.0775 54.887 56.178 54.9946 56.283 55.0976C56.3431 55.1564 56.4219 55.208 56.473 55.2737C56.5978 55.434 56.624 55.3022 56.5596 55.5375C56.4697 55.8666 56.2658 56.1912 56.141 56.5114C56.0123 56.8413 55.896 57.1758 55.7897 57.5136C55.5742 58.1975 55.3921 58.8938 55.2782 59.6021C55.0595 60.962 55.0979 62.411 55.7411 63.6591C56.0162 64.1929 56.4107 64.6612 56.8893 65.0255C57.1235 65.2038 57.3772 65.3574 57.6433 65.4835C57.7801 65.5485 57.9547 65.5763 58.0171 65.7086C58.0842 65.8508 57.9845 66.1332 57.9618 66.2922C57.764 67.6753 57.6648 69.1275 58.076 70.483C58.4547 71.7314 59.2884 72.8337 60.371 73.5634C62.471 74.9791 65.3017 74.8993 67.5083 73.766C68.0835 73.4705 68.6216 73.1037 69.1016 72.671C70.3239 74.3165 72.8392 74.2644 74.6257 73.7956C76.8514 73.2115 78.6373 71.6638 79.6662 69.6305C81.0732 71.3432 84.026 70.7875 85.0017 68.9294C85.2405 68.4747 85.3821 67.9735 85.4519 67.4663C85.4886 67.1996 85.4652 66.9305 85.4927 66.6659C85.5279 66.3288 85.7531 66.0012 85.8826 65.675C86.1347 65.0403 86.2912 64.3846 86.298 63.6999C86.3014 63.3424 86.2562 62.9941 86.2222 62.6394C86.1916 62.3202 86.2801 62.0228 86.3304 61.7078C85.7596 61.8018 85.0642 61.6478 84.5264 61.4823C83.9986 61.3199 83.5043 60.8921 83.1318 60.5014C82.2669 59.5942 81.7386 58.405 81.3772 57.2214C80.584 54.6236 80.9092 51.5068 83.5221 50.081C84.7393 49.4169 88.386 49.419 89.8358 49.7473C91.3602 50.0924 93.0883 53.4561 93.1734 53.7722C93.226 53.9679 93.1995 54.2101 93.3793 54.3404C93.7743 54.6271 94.4258 54.1296 94.7172 53.8841C95.22 53.4603 95.5787 52.8965 95.8893 52.325C96.5661 51.0799 97.1118 49.7447 97.4972 48.3816C97.7943 47.3307 97.9843 46.2471 98.3727 45.223C98.7592 44.204 99.3684 43.2932 100.316 42.716C101.346 42.088 102.527 41.7572 103.658 41.3626C104.78 40.9715 105.882 40.4935 106.751 39.6636C106.942 39.4811 107.128 39.2872 107.281 39.0724C107.403 38.9028 107.523 38.5781 107.708 38.4705C107.996 38.3032 108.415 38.7383 108.664 38.8962C109.891 39.6756 110.915 40.7626 111.741 41.9501C112.562 43.1311 113.236 44.2675 113.783 45.5862C114.189 46.5643 114.443 47.8169 115.157 48.6184C115.476 48.9763 117.846 49.1928 118.614 48.8804C119.382 48.5679 120.243 47.7566 120.5 47.2481C120.764 46.7277 120.827 46.156 120.714 45.5862C120.648 45.251 120.513 44.9379 120.439 44.6087C120.376 44.3322 120.32 44.0708 120.185 43.8174C119.93 43.3373 119.494 42.9923 118.968 42.848C119.515 42.3437 119.969 41.7403 120.282 41.0659C120.608 40.3653 120.884 39.5132 120.963 38.7441C121.026 38.1195 120.928 37.4724 120.586 36.9356C120.227 36.3725 119.592 36.0051 119.042 35.6539C119.882 34.9968 120.601 34.1977 121.192 33.313C122.341 31.5924 123.052 29.4237 122.468 27.3725Z" fill="#191847"/>
<path fill-rule="evenodd" clip-rule="evenodd" d="M14.8699 216.814H121.747C129.96 216.814 136.617 223.472 136.617 231.684V317.186C136.617 325.399 129.96 332.056 121.747 332.056H14.8699C6.65748 332.056 0 325.399 0 317.186V231.684C0 223.472 6.65748 216.814 14.8699 216.814ZM29.7398 242.837C27.6867 242.837 26.0223 244.501 26.0223 246.554V302.316C26.0223 304.369 27.6867 306.034 29.7398 306.034H106.877C108.93 306.034 110.595 304.369 110.595 302.316V246.554C110.595 244.501 108.93 242.837 106.877 242.837H29.7398Z" fill="#C5CFD6"/>
<path fill-rule="evenodd" clip-rule="evenodd" d="M203.075 328.952C191.168 302.596 182.556 279.647 179.099 267.539C173.181 246.807 168.678 228.565 167.54 221.752C164.827 205.506 188.416 204.56 191.534 212.634C196.253 224.854 204.492 265.005 214.391 325.65L203.075 328.952ZM64.952 246.241C75.8774 241.923 114.138 228.408 132.59 224.585C137.893 223.486 143.032 222.466 147.864 221.543C162.227 218.801 169.668 244.712 155.835 246.702C121.386 251.66 72.5491 256.78 68.3697 257.355C62.5121 258.16 58.0857 248.955 64.952 246.241Z" fill="#B28B67"/>
<path fill-rule="evenodd" clip-rule="evenodd" d="M156.679 214.413L97.5836 184.33V177.781H104.612C161.784 192.35 190.999 201.686 192.257 205.79C192.271 205.834 192.283 205.879 192.294 205.923C192.323 205.961 192.351 205.999 192.379 206.037C203.71 221.619 210.495 297.695 212.722 303.391L191.011 306.63C182.706 275.832 156.134 254.378 156.84 217.492C156.649 216.41 156.601 215.384 156.679 214.413Z" fill="#1F28CF"/>
<path fill-rule="evenodd" clip-rule="evenodd" d="M102.494 232.28C97.0865 231.197 92.1071 230.231 87.8464 229.484C60.3246 224.657 52.299 209.924 57.0442 177.781H107.753C116.036 180.16 159.084 198.213 181.419 207.815C196.201 214.17 191.541 237.079 183.17 243.041C183.125 243.407 182.974 243.655 182.706 243.766C137.674 262.43 102.049 252.637 90.1487 255.766L84.6442 238.402L102.494 232.28Z" fill="#2B44FF"/>
<path fill-rule="evenodd" clip-rule="evenodd" d="M68.6875 243.481C65.7371 243.764 63.6426 244.207 62.4041 244.811C60.8978 245.545 58.8221 246.868 56.1771 248.78C57.0294 250.527 64.6889 266.232 79.1556 295.893C83.8003 295.143 85.6407 293.371 84.6769 290.575C83.7131 287.78 82.9357 285.447 82.3448 283.575L81.4267 256.916C81.4091 256.403 80.9789 256.002 80.4659 256.019C80.4571 256.02 80.4484 256.02 80.4396 256.021L76.3387 256.279C74.0084 254.392 72.4709 252.686 71.7263 251.159C71.1213 249.919 70.7868 247.961 70.7227 245.287L70.7227 245.287C70.6981 244.261 69.8462 243.449 68.82 243.473C68.7757 243.475 68.7316 243.477 68.6875 243.481Z" fill="#E4E4E4"/>
<path fill-rule="evenodd" clip-rule="evenodd" d="M197.656 324.065C196.617 326.841 196.097 328.917 196.097 330.295C196.097 331.971 196.376 334.417 196.934 337.632C198.878 337.632 216.351 337.632 249.352 337.632C250.714 333.129 249.928 330.698 246.993 330.339C244.059 329.979 241.621 329.655 239.679 329.366L215.316 318.505C214.847 318.296 214.298 318.506 214.089 318.975C214.085 318.983 214.082 318.991 214.078 318.999L212.512 322.798C209.795 324.066 207.588 324.7 205.889 324.7C204.509 324.7 202.603 324.142 200.171 323.027L200.171 323.027C199.238 322.6 198.135 323.009 197.707 323.943C197.689 323.983 197.672 324.024 197.656 324.065Z" fill="#E4E4E4"/>
<path fill-rule="evenodd" clip-rule="evenodd" d="M151.528 163.025L177.855 188.708C185.515 191.975 191.792 195.583 196.685 199.532C197.785 200.859 198.983 203.402 193.806 202.264C188.629 201.126 183.133 200.162 182.16 201.846C181.187 203.529 184.054 206.109 182.256 208.312C181.057 209.781 177.025 205.109 170.161 194.296L142.784 178.155L151.528 163.025ZM34.6728 166.647L54.0942 166.723C42.1024 205.435 35.6286 225.975 34.6728 228.344C32.5223 233.673 37.073 241.79 39.0191 246.152C32.6808 248.988 33.3561 238.484 25.3605 242.204C18.0625 245.6 12.5109 251.752 4.07902 246.549C3.04238 245.909 1.90638 243.501 4.65109 241.619C11.4891 236.93 21.3432 228.724 22.6746 226.023C24.4903 222.339 28.4897 202.547 34.6728 166.647Z" fill="#B28B67"/>
<path fill-rule="evenodd" clip-rule="evenodd" d="M89.8652 85.1526L97.9016 83.7742C111.738 118.338 135.894 149.743 170.37 177.99L144.318 209.641C109.846 169.421 88.5969 127.925 89.8652 85.1526Z" fill="#191847"/>
<path fill-rule="evenodd" clip-rule="evenodd" d="M54.8327 186.145H126.394C109.815 145.834 101.525 111.59 101.525 83.4133L79.9389 80.197C62.9739 107.482 58.1829 141.075 54.8327 186.145Z" fill="#DDE3E9"/>
<path fill-rule="evenodd" clip-rule="evenodd" d="M79.4818 80.2123C79.4847 80.2072 79.4875 80.2021 79.4903 80.197H80.8994C82.5855 80.2551 85.1536 80.3597 88.6038 80.5108L93.8199 95.4172C94.3716 113.591 97.5937 150.218 103.486 205.296H56.5763C56.6993 209.1 56.902 212.939 57.1846 216.814H22.3048C27.5222 157.952 46.5755 112.413 79.4647 80.197L79.4818 80.2123V80.2123Z" fill="#2F3676"/>
<path fill-rule="evenodd" clip-rule="evenodd" d="M59.6749 156.622C61.01 180.335 64.3525 196.681 69.7026 205.662H56.5884C56.0142 188.601 57.0431 172.255 59.6749 156.622V156.622Z" fill="black" fill-opacity="0.1"/>
<path fill-rule="evenodd" clip-rule="evenodd" d="M67.0176 176.851L90.1487 166.098V176.851H67.0176Z" fill="white" fill-opacity="0.2"/>
</svg>
