<svg width="487" height="194" viewBox="0 0 487 194" fill="none" xmlns="http://www.w3.org/2000/svg">
<path d="M50.8508 166H29.5004C28.7867 166 28.3027 165.274 28.5774 164.615L93.5292 8.82838C93.8778 7.9924 95.0693 8.01338 95.3882 8.86111L153.991 164.648C154.237 165.302 153.754 166 153.055 166H134.174C133.767 166 133.4 165.753 133.247 165.375L95.3822 71.683C95.0516 70.8649 93.9008 70.8447 93.5417 71.6507L51.7642 165.407C51.6035 165.768 51.2457 166 50.8508 166Z" fill="#0075FF" stroke="#0075FF" stroke-width="7"/>
<path d="M136 165V12C136 11.4477 136.448 11 137 11H153C153.552 11 154 11.4477 154 12V165C154 165.552 153.552 166 153 166H137C136.448 166 136 165.552 136 165Z" fill="#0075FF" stroke="#0075FF" stroke-width="7"/>
<ellipse cx="190.037" cy="160.752" rx="9.03684" ry="8.74945" fill="black"/>
<ellipse cx="231.5" cy="178.251" rx="9.03684" ry="8.74945" fill="black"/>
<ellipse cx="272.963" cy="160.752" rx="9.03684" ry="8.74945" fill="black"/>
<path d="M190.037 159.722V41.3474L231.5 81.4919M231.5 81.4919L272.963 41.3474V159.722M231.5 81.4919V178.765" stroke="black" stroke-width="7"/>
<ellipse cx="364.037" cy="160.749" rx="9.03684" ry="8.74945" fill="black"/>
<ellipse cx="339.037" cy="99.7495" rx="9.03684" ry="8.74945" fill="black"/>
<ellipse cx="364.037" cy="39.7495" rx="9.03684" ry="8.74945" fill="black"/>
<path d="M365 40H309.5V100M365 160H309.5V100M309.5 100H336" stroke="black" stroke-width="7"/>
<ellipse cx="396.037" cy="39.7495" rx="9.03684" ry="8.74945" fill="black"/>
<ellipse cx="420.037" cy="47.7495" rx="9.03684" ry="8.74945" fill="black"/>
<path d="M396 40V160H460V79.5L420.057 48" stroke="black" stroke-width="7"/>
<path d="M481 43C481.951 43.2691 483.085 43.4539 482.844 45.5173C482.772 46.1395 483.055 46.5462 483.5 46.8039M484.5 49C484 48.5 483.5 48 483.5 46.8039M483.5 46.8039C484.769 46.5281 485.288 46.6679 486 47.5" stroke="black" stroke-linecap="round"/>
<line x1="129.5" y1="169" x2="129.5" y2="2" stroke="white" stroke-width="7"/>
<line x1="104.76" y1="113.323" x2="64.7595" y2="15.3226" stroke="white" stroke-width="7"/>
<path d="M162.5 155.5C162.5 190.7 57.1667 188 0 186.5C69.5 194.5 179 207 179 155.5C179 104 131.5 120.714 131.5 106.5C131.5 92.286 177.5 112.5 177.5 71.5C177.5 30.4999 126.5 57.9999 126.5 38.5C126.5 19 382.5 16.5065 456.5 40C463 47.5 478 46 480.5 43.5C483 41 476.5 29 461 28C444.5 14 113.5 -3.49999 113.5 37C113.5 77.5001 162.5 44.4999 162.5 71.5C162.5 98.5 115.5 76 115.5 106.5C115.5 137 162.5 111.5 162.5 155.5Z" fill="#FF7D00"/>
<circle cx="475" cy="37" r="1" fill="black"/>
<rect x="133" y="108" width="24" height="27" fill="#0075FF"/>
<rect x="133" y="39" width="24" height="27" fill="#0075FF"/>
</svg>
