<svg width="639" height="162" viewBox="0 0 639 162" fill="none" xmlns="http://www.w3.org/2000/svg">
<path d="M113.5 25.0273C112.606 21.6909 114.072 18.5273 114.817 17.0273L117.5 29.0273C116.755 28.5273 114.394 28.3638 113.5 25.0273Z" fill="#D9BB3C"/>
<path d="M134.5 7.02732C132.5 5.52727 129 5.52732 128 6.02732L129.5 12.5274L137 13.0274C137.333 11.8607 136.5 8.52737 134.5 7.02732Z" fill="#D9BB3C"/>
<path d="M144.5 127.527C144.5 153.027 171.5 153.527 171.5 153.527L187 131.027C187 131.027 160.5 146.127 160.5 132.527C160.5 115.527 223 118.027 223 84.0274C223 61.5274 197.5 56.0274 178.5 54.0274C159.5 52.0274 153.443 38.1833 153 35.5274C152.5 32.5274 155.5 28.0274 152 22.5274C146.356 13.6589 141 12.3131 136.5 11.0274C133 10.0274 121.5 0.527245 119 0.0273031C116.5 -0.472641 110 6.0274 110 8.52734C110 11.0273 113 16.5273 114.5 18.5273C116 20.5273 116.5 34.5273 125 43.0273C133.5 51.5273 135.5 46.0272 139 48.5273C142.5 51.0273 140 55.5273 154 69.0273C167.491 82.0366 200 73.5274 200 88.0274C200 102.527 144.5 102.027 144.5 127.527Z" fill="url(#paint0_linear_85_176)"/>
<path fill-rule="evenodd" clip-rule="evenodd" d="M55.5 13.5273H100L156.5 161.027H119.5L107 127.027H48.5L36 161.027H0L55.5 13.5273ZM76.5 44.0273L56 101.027H98.5L76.5 44.0273Z" fill="#FF7D00"/>
<path d="M162.5 11.0273V161.027H198.5V11.0273H162.5Z" fill="#FF7D00"/>
<path d="M207.5 159.027V11.0273H262L293 125.027L324 11.0273H376.5V159.027H342V52.0273L311.5 159.027H274.5L242 52.0273V159.027H207.5Z" fill="#003DCE"/>
<path d="M385 11.0273H482.5V39.0273C462 38.694 420.5 39.0273 420.5 39.0273V69.5273H475.5V97.0274H420.5V130.527H486V159.027H385V11.0273Z" fill="#003DCE"/>
<rect x="605.5" y="36.0273" width="11" height="10" fill="#FF7D00"/>
<path fill-rule="evenodd" clip-rule="evenodd" d="M488.5 159.027V11.5273L540.5 11.5273C540.5 11.5273 615.007 7.02736 615.5 78.5273V87.0274C615.5 162.027 540.5 159.027 540.5 159.027H488.5ZM523.5 40.0273V130.027H544C561 130.027 578.5 116.527 578.5 84.0273C578.5 51.5273 562 40.0273 544 40.0273H523.5Z" fill="#003DCE"/>
<rect x="552.5" y="9.02734" width="24" height="21" fill="#FF7D00"/>
<rect x="586.5" y="19.0273" width="17" height="15" fill="#FF7D00"/>
<rect x="562.5" y="38.0273" width="17" height="14" fill="#FF7D00"/>
<rect x="553.5" y="59.0273" width="15" height="13" fill="#FF7D00"/>
<rect x="587.5" y="57.0273" width="21" height="18" fill="#FF7D00"/>
<rect x="615.5" y="58.0273" width="12" height="10" fill="#FF7D00"/>
<rect x="613.5" y="86.0273" width="25" height="21" fill="#FF7D00"/>
<rect x="619.5" y="126.027" width="11" height="10" fill="#FF7D00"/>
<rect x="582.5" y="114.027" width="24" height="21" fill="#FF7D00"/>
<rect x="552.5" y="86.0273" width="21" height="18" fill="#FF7D00"/>
<rect x="554.5" y="143.027" width="21" height="18" fill="#FF7D00"/>
<rect x="586.5" y="149.027" width="11" height="10" fill="#FF7D00"/>
<path d="M589.366 30.7151L574.643 41.8159" stroke="#FF7D00" stroke-width="4"/>
<path d="M577.5 50.0273L590.5 61.0273" stroke="#FF7D00" stroke-width="4"/>
<path d="M592.5 71.0273L570.5 89.0273" stroke="#FF7D00" stroke-width="4"/>
<path d="M616.5 104.027L603.5 118.027" stroke="#FF7D00" stroke-width="4"/>
<path d="M570.5 101.027L586.5 118.027" stroke="#FF7D00" stroke-width="4"/>
<path d="M570.5 148.027L588.5 131.027" stroke="#FF7D00" stroke-width="4"/>
<g style="mix-blend-mode:lighten" opacity="0.5" filter="url(#filter0_f_85_176)">
<ellipse cx="126.256" cy="38.079" rx="0.66593" ry="1.18483" transform="rotate(-36.8602 126.256 38.079)" fill="white"/>
</g>
<g style="mix-blend-mode:lighten" opacity="0.5" filter="url(#filter1_f_85_176)">
<ellipse cx="130.289" cy="37.2588" rx="0.826331" ry="1.06107" transform="rotate(-36.8602 130.289 37.2588)" fill="white"/>
</g>
<g style="mix-blend-mode:lighten" opacity="0.5" filter="url(#filter2_f_85_176)">
<ellipse cx="128.333" cy="41.9741" rx="0.99277" ry="1.68871" transform="rotate(-36.8602 128.333 41.9741)" fill="white"/>
</g>
<g style="mix-blend-mode:lighten" opacity="0.5" filter="url(#filter3_f_85_176)">
<ellipse cx="135.537" cy="41.998" rx="1.10628" ry="1.04758" transform="rotate(-36.8602 135.537 41.998)" fill="white"/>
</g>
<g style="mix-blend-mode:lighten" opacity="0.5" filter="url(#filter4_f_85_176)">
<circle cx="149.5" cy="57.0273" r="1" fill="white"/>
</g>
<g style="mix-blend-mode:lighten" opacity="0.5" filter="url(#filter5_f_85_176)">
<ellipse cx="159.056" cy="63.0347" rx="0.768496" ry="1.31599" transform="rotate(-53.0899 159.056 63.0347)" fill="white"/>
</g>
<defs>
<filter id="filter0_f_85_176" x="124.868" y="36.55" width="2.77661" height="3.05798" filterUnits="userSpaceOnUse" color-interpolation-filters="sRGB">
<feFlood flood-opacity="0" result="BackgroundImageFix"/>
<feBlend mode="normal" in="SourceGraphic" in2="BackgroundImageFix" result="shape"/>
<feGaussianBlur stdDeviation="0.25" result="effect1_foregroundBlur_85_176"/>
</filter>
<filter id="filter1_f_85_176" x="128.871" y="35.7755" width="2.83557" height="2.96655" filterUnits="userSpaceOnUse" color-interpolation-filters="sRGB">
<feFlood flood-opacity="0" result="BackgroundImageFix"/>
<feBlend mode="normal" in="SourceGraphic" in2="BackgroundImageFix" result="shape"/>
<feGaussianBlur stdDeviation="0.25" result="effect1_foregroundBlur_85_176"/>
</filter>
<filter id="filter2_f_85_176" x="126.546" y="39.9972" width="3.57458" height="3.95386" filterUnits="userSpaceOnUse" color-interpolation-filters="sRGB">
<feFlood flood-opacity="0" result="BackgroundImageFix"/>
<feBlend mode="normal" in="SourceGraphic" in2="BackgroundImageFix" result="shape"/>
<feGaussianBlur stdDeviation="0.25" result="effect1_foregroundBlur_85_176"/>
</filter>
<filter id="filter3_f_85_176" x="133.951" y="40.429" width="3.17114" height="3.13818" filterUnits="userSpaceOnUse" color-interpolation-filters="sRGB">
<feFlood flood-opacity="0" result="BackgroundImageFix"/>
<feBlend mode="normal" in="SourceGraphic" in2="BackgroundImageFix" result="shape"/>
<feGaussianBlur stdDeviation="0.25" result="effect1_foregroundBlur_85_176"/>
</filter>
<filter id="filter4_f_85_176" x="148" y="55.5273" width="3" height="3" filterUnits="userSpaceOnUse" color-interpolation-filters="sRGB">
<feFlood flood-opacity="0" result="BackgroundImageFix"/>
<feBlend mode="normal" in="SourceGraphic" in2="BackgroundImageFix" result="shape"/>
<feGaussianBlur stdDeviation="0.25" result="effect1_foregroundBlur_85_176"/>
</filter>
<filter id="filter5_f_85_176" x="157.407" y="61.5336" width="3.29858" height="3.00232" filterUnits="userSpaceOnUse" color-interpolation-filters="sRGB">
<feFlood flood-opacity="0" result="BackgroundImageFix"/>
<feBlend mode="normal" in="SourceGraphic" in2="BackgroundImageFix" result="shape"/>
<feGaussianBlur stdDeviation="0.25" result="effect1_foregroundBlur_85_176"/>
</filter>
<linearGradient id="paint0_linear_85_176" x1="134.5" y1="92.0273" x2="200" y2="66.0273" gradientUnits="userSpaceOnUse">
<stop stop-color="#FF7D00"/>
<stop offset="1" stop-color="#003183"/>
</linearGradient>
</defs>
</svg>
